# xmcd
#
# Track frame offsets:
#	150
#	12101
#	25690
#	36610
#	49635
#	62083
#	72342
#	97692
#	106323
#	123168
#	139052
#	157348
#	169686
#	185148
#	198243
#
# Disc length: 2794 seconds
#
# Revision: 0
# Processed by: cddbd v1.5.2PL0 Copyright (c) Steve Scherf et al.
# Submitted via: EasyCDDAExtractor 10.0.5.1
#
DISCID=cb0ae80f
DTITLE=Ray Taver - Chansons Dautrefois
DYEAR=1900
DGENRE=Rétro
TTITLE0=Rumba Des Rêves
TTITLE1=Après Toi Je N'aurai Plus D'amour
TTITLE2=Bonheur Perdu
TTITLE3=Je Suis Seul Ce Soir
TTITLE4=La Madone Aux Fleurs
TTITLE5=La Petite Fusée
TTITLE6=Les Feuilles Mortes
TTITLE7=Luna Rossa
TTITLE8=N'oublie Jamais
TTITLE9=Nuages
TTITLE10=Que Reste T'il De Nos Amours
TTITLE11=Ramona
TTITLE12=Roses De Picardie
TTITLE13=Si Je Pouvais Te Dire
TTITLE14=Tant Qu'il Y Aura Des Étoiles
EXTD=
EXTT0=
EXTT1=
EXTT2=
EXTT3=
EXTT4=
EXTT5=
EXTT6=
EXTT7=
EXTT8=
EXTT9=
EXTT10=
EXTT11=
EXTT12=
EXTT13=
EXTT14=
PLAYORDER=
